<svg width="16" height="17" viewBox="0 0 16 17" fill="none" xmlns="http://www.w3.org/2000/svg">
<path d="M8.00236 12.8432C8.08745 12.7683 8.15658 12.7113 8.21863 12.6488C9.81047 11.0492 11.4005 9.44786 12.9924 7.84648C13.0491 7.78941 13.1076 7.73235 13.1537 7.66636C13.5082 7.17418 13.2796 6.48762 12.6999 6.32177C12.3489 6.22191 12.0511 6.33782 11.7976 6.59283C10.9326 7.46664 10.0657 8.33688 9.19891 9.2089C9.11559 9.29271 9.02873 9.3694 8.88869 9.49957C8.87628 9.2945 8.8621 9.15719 8.86033 9.02166C8.86033 6.4038 8.86033 3.78595 8.85856 1.16809C8.85856 1.0076 8.85856 0.843538 8.83374 0.684826C8.75751 0.221174 8.27003 -0.0909001 7.82155 0.0250131C7.35357 0.146276 7.14972 0.4423 7.14972 1.029C7.14794 3.69678 7.14972 6.36635 7.14794 9.03414C7.14794 9.1661 7.13022 9.29985 7.11426 9.49423C6.97422 9.36226 6.88559 9.2838 6.80227 9.19998C5.94254 8.33509 5.08103 7.47199 4.22483 6.60531C3.96425 6.34139 3.66113 6.21478 3.29773 6.32534C2.64717 6.52507 2.48054 7.30079 2.98397 7.80903C4.59886 9.44251 6.22084 11.0689 7.84105 12.6988C7.8836 12.7416 7.93146 12.7772 8.00414 12.8432H8.00236ZM7.98995 16.9983C9.66689 16.9983 11.3456 17.0036 13.0225 16.9983C14.3768 16.9929 15.6017 16.0781 15.8747 14.7495C16.0219 14.0398 15.9829 13.2873 15.9988 12.5525C16.0095 12.0354 15.6212 11.6787 15.1196 11.6859C14.6374 11.693 14.2935 12.055 14.2882 12.5686C14.2829 13.0126 14.29 13.4585 14.2864 13.9025C14.2776 14.705 13.7351 15.2667 12.9445 15.2667C9.64916 15.272 6.35557 15.272 3.0602 15.2667C2.28377 15.2667 1.73425 14.7067 1.72184 13.9292C1.71475 13.4852 1.72184 13.0394 1.72007 12.5953C1.71652 12.055 1.37972 11.6912 0.883374 11.6841C0.371076 11.677 0.00768151 12.0443 0.00236354 12.5846C-0.00295443 13.0091 0.00236354 13.4335 0.00236354 13.8579C0.00590886 15.6786 1.30704 16.9947 3.10983 16.9965C4.73713 16.9983 6.36443 16.9965 7.99173 16.9965L7.98995 16.9983Z" fill="#DD663C"/>
<path d="M8.00108 12.843C7.92663 12.7788 7.87877 12.7413 7.838 12.6985C6.21779 11.0686 4.59581 9.44227 2.98092 7.80878C2.47748 7.30055 2.64589 6.52482 3.29468 6.3251C3.65807 6.21453 3.95943 6.33936 4.22178 6.60507C5.07974 7.47174 5.93948 8.33485 6.79922 9.19974C6.88254 9.28356 6.97117 9.36202 7.11121 9.49398C7.12539 9.29782 7.14489 9.16586 7.14489 9.0339C7.14666 6.36611 7.14489 3.69654 7.14666 1.02876C7.14666 0.442056 7.35052 0.146032 7.8185 0.0247689C8.26698 -0.0911442 8.75624 0.22093 8.83069 0.684582C8.85728 0.843294 8.8555 1.00736 8.8555 1.16785C8.8555 3.78571 8.8555 6.40356 8.85728 9.02141C8.85728 9.15873 8.87323 9.29426 8.88564 9.49933C9.02391 9.36915 9.11254 9.29069 9.19585 9.20866C10.0627 8.33663 10.9295 7.46639 11.7946 6.59259C12.0481 6.33579 12.3441 6.21988 12.6969 6.32153C13.2783 6.48737 13.507 7.17215 13.1507 7.66612C13.1046 7.73032 13.0461 7.78917 12.9893 7.84623C11.3993 9.44762 9.80742 11.049 8.21557 12.6486C8.15353 12.711 8.0844 12.7681 7.99931 12.843H8.00108Z" fill="#DD663C"/>
<path d="M7.98978 16.9979C6.36248 16.9979 4.73519 16.9997 3.10789 16.9979C1.30509 16.9943 0.00219132 15.6782 -0.00135399 13.8575C-0.00135399 13.4331 -0.00489931 13.0087 -0.00135399 12.5843C0.00396398 12.0439 0.367359 11.6766 0.879656 11.6837C1.37423 11.6908 1.71103 12.0546 1.71635 12.595C1.7199 13.039 1.71281 13.4848 1.71812 13.9288C1.72876 14.7064 2.28006 15.2663 3.05648 15.2663C6.35185 15.2717 9.64544 15.2717 12.9408 15.2663C13.7314 15.2663 14.2739 14.7028 14.2827 13.9021C14.288 13.4581 14.2809 13.0122 14.2845 12.5682C14.2898 12.0546 14.6337 11.6908 15.1159 11.6855C15.6193 11.6783 16.0057 12.0368 15.9951 12.5522C15.9791 13.2869 16.0181 14.0376 15.871 14.7492C15.5963 16.0777 14.3713 16.9925 13.0188 16.9979C11.3419 17.0032 9.66317 16.9979 7.98624 16.9979H7.98978Z" fill="#DD663C"/>
</svg>
